<?xml version="1.0" encoding="utf-8"?>
<svg xmlns="http://www.w3.org/2000/svg" data-name="Layer 1" id="Layer_1" viewBox="0 0 595.28 87.87">
  <path d="M43.73,17.26c-5.53-2.86-11.18-4.29-16.92-4.29-3.81,0-6.74.45-8.77,1.36s-3.04,2.16-3.04,3.76,1.08,2.89,3.25,3.66c1.55.56,4.08.94,7.59,1.15,5.16.35,8.57.63,10.22.83,4.68.63,8.14,1.8,10.37,3.5,2.23,1.71,3.35,4.13,3.35,7.27,0,4.01-1.75,7.11-5.26,9.3-3.51,2.19-8.55,3.29-15.12,3.29-9.53,0-16.94-2.12-22.24-6.38l3.4-4.55c5.85,3.63,12.15,5.44,18.89,5.44,4.37,0,7.76-.61,10.17-1.83,2.31-1.18,3.46-2.8,3.46-4.86,0-2.4-1.51-4.01-4.54-4.81-1.58-.42-5.85-.86-12.8-1.31-6.16-.42-10.47-1.25-12.95-2.51-2.89-1.46-4.33-3.92-4.33-7.37s1.64-6.36,4.93-8.41c3.29-2.06,7.92-3.08,13.91-3.08,8.05,0,14.79,1.86,20.23,5.59l-3.77,4.23h0Z"/>
  <path d="M87.18,32.09l-9.52-18.33-9.63,18.33h19.15ZM101.27,46.2h-6.77l-4.3-8.46h-25.16l-4.31,8.46h-6.77l19.76-37.83h7.79l19.76,37.83h0Z"/>
  <polygon points="150.7 46.2 142.99 46.2 114.48 15.18 114.48 46.2 108.28 46.2 108.28 8.37 115.97 8.37 144.5 39.41 144.5 8.37 150.7 8.37 150.7 46.2"/>
  <rect height="37.83" width="6.19" x="163.19" y="8.37"/>
  <path d="M210.4,26.14c4.78,0,7.17-1.95,7.17-5.85,0-4.18-2.53-6.27-7.59-6.27h-21.93v12.12h22.34ZM211.48,8.37c3.82,0,6.85,1.07,9.08,3.21,2.24,2.15,3.36,5.01,3.36,8.6s-1.16,6.64-3.48,8.62c-2.32,1.98-5.71,2.98-10.14,2.98h-22.24v14.43h-6.19V8.37h29.62,0Z"/>
  <polygon points="270.15 46.2 231.04 46.2 231.04 8.37 268.71 8.37 268.71 14.01 237.23 14.01 237.23 23.73 259.11 23.73 259.11 29.38 237.23 29.38 237.23 40.56 270.15 40.56 270.15 46.2"/>
  <polygon points="320.1 46.2 312.05 46.2 296.96 30.9 281.96 46.2 273.92 46.2 292.97 27.04 274.58 8.37 282.64 8.37 297.02 23.09 311.38 8.37 319.42 8.37 301.03 27.01 320.1 46.2"/>
  <path d="M372.83,26.71c0,6.15-2.18,11.12-6.53,14.91-4.35,3.79-10.12,5.68-17.31,5.68-6.57,0-12.06-1.69-16.46-5.07-4.99-3.83-7.48-8.83-7.48-15s2.53-11.04,7.58-14.94c4.44-3.42,10.06-5.12,16.88-5.12,8.22,0,14.97,3.05,20.23,9.15l-5.78,2.93c-3.89-4.21-8.87-6.32-14.97-6.32-4.74,0-8.72,1.19-11.92,3.56-3.71,2.75-5.57,6.34-5.57,10.76s1.6,7.7,4.8,10.35c3.2,2.65,7.42,3.97,12.69,3.97,8.26,0,13.62-3.26,16.1-9.77h-17.39v-5.64h25.12v.57h0Z"/>
  <path d="M474.94,27.24c0-4.42-1.86-8.01-5.58-10.76-3.2-2.37-7.17-3.56-11.92-3.56-5.19,0-9.42,1.35-12.69,4.05-3.27,2.7-4.91,6.12-4.91,10.27s1.6,7.74,4.8,10.37c3.2,2.63,7.46,3.94,12.79,3.94s9.54-1.32,12.72-3.97c3.18-2.65,4.78-6.1,4.78-10.35M481.39,27.24c0,6.2-2.51,11.22-7.53,15.05-4.4,3.35-9.87,5.02-16.41,5.02s-12.11-1.69-16.51-5.07c-5.02-3.83-7.53-8.83-7.53-15s2.55-11.05,7.64-14.94c4.47-3.41,9.94-5.12,16.41-5.12s11.95,1.71,16.36,5.12c5.06,3.9,7.59,8.88,7.59,14.94"/>
  <path d="M533.97,33.98c0,3.94-1.89,7.12-5.67,9.56-3.85,2.54-8.99,3.81-15.42,3.81s-11.62-1.27-15.53-3.81c-3.79-2.48-5.68-5.66-5.68-9.56V8.37h6.19v24.09c0,2.96,1.28,5.23,3.84,6.79,2.56,1.57,6.29,2.35,11.18,2.35s8.58-.78,11.11-2.35c2.53-1.56,3.79-3.83,3.79-6.79V8.37h6.19v25.61h0Z"/>
  <path d="M574.74,26.14c4.78,0,7.17-1.95,7.17-5.85,0-4.18-2.53-6.27-7.59-6.27h-21.92v12.12h22.35ZM575.82,8.37c3.83,0,6.85,1.07,9.09,3.21,2.23,2.15,3.35,5.01,3.35,8.6s-1.16,6.64-3.48,8.62c-2.32,1.98-5.71,2.98-10.14,2.98h-22.24v14.43h-6.2V8.37h29.62Z"/>
  <path d="M411.89,26.14c4.79,0,7.17-1.95,7.17-5.85,0-4.18-2.58-6.27-7.74-6.27h-21.77v12.12h22.34ZM425.72,46.2h-7.2l-10.11-14.42h-18.86v14.42h-6.19V8.37h29.46c3.92,0,7,1.07,9.24,3.21,2.23,2.15,3.35,5.04,3.35,8.7,0,3.21-.91,5.78-2.73,7.73-1.69,1.81-4.01,2.96-6.97,3.45l10.01,14.73h0Z"/>
  <g>
    <path d="M22.7,67.85c1.2-.77,1.81-1.84,1.81-3.18s-.46-2.34-1.37-3.12c-.9-.77-2.15-1.16-3.71-1.16H7.02v15.45h12.24c3.9,0,5.88-1.38,5.88-4.12,0-1.93-.82-3.23-2.44-3.87ZM9.79,69.27h9.89c1.77,0,2.63.69,2.63,2.1,0,1.31-.99,1.95-3.02,1.95h-9.49v-4.06ZM21.15,66.18c-.44.38-1.01.57-1.67.57h-9.68v-3.84h9.79c.69,0,1.25.17,1.64.52.4.34.59.8.59,1.38,0,.54-.22.99-.66,1.37Z"/>
    <polygon points="36.68 67.42 30.32 60.43 30.28 60.39 26.8 60.39 35.28 69.76 35.28 75.84 38.05 75.84 38.05 69.76 46.52 60.39 43.04 60.39 36.68 67.42"/>
    <path d="M63.92,67.99c-.92-.7-2.36-1.18-4.28-1.43-.67-.08-2.03-.19-4.17-.34-1.41-.08-2.44-.24-3.05-.46-.83-.29-1.24-.73-1.24-1.35s.38-1.05,1.16-1.4c.81-.36,1.99-.54,3.52-.54,2.31,0,4.61.58,6.83,1.71l.09.04,1.69-1.88-.12-.08c-2.22-1.5-5.02-2.27-8.3-2.27-2.45,0-4.37.42-5.73,1.26-1.37.85-2.06,2.02-2.06,3.49s.62,2.46,1.83,3.07c1.02.51,2.81.85,5.32,1.02,2.81.18,4.55.36,5.18.52,1.18.31,1.75.9,1.75,1.81,0,.78-.44,1.38-1.34,1.84-.96.48-2.33.72-4.08.72-2.71,0-5.27-.73-7.62-2.17l-.1-.06-1.53,2.01.1.08c2.17,1.72,5.24,2.59,9.13,2.59,2.68,0,4.78-.45,6.22-1.34,1.46-.9,2.2-2.2,2.2-3.84,0-1.29-.48-2.31-1.42-3.02Z"/>
    <polygon points="67.93 62.9 75.19 62.9 75.19 75.84 77.96 75.84 77.96 62.9 85.23 62.9 85.23 60.39 67.93 60.39 67.93 62.9"/>
    <path d="M105.07,68.49c.76-.8,1.15-1.88,1.15-3.19,0-1.5-.47-2.71-1.4-3.59-.93-.88-2.22-1.33-3.84-1.33h-12.12v15.45h2.77v-5.8h7.49l4.11,5.8h3.23l-4.1-5.96c1.14-.22,2.05-.68,2.71-1.39ZM103.38,65.3c0,1.5-.91,2.23-2.79,2.23h-8.97v-4.62h8.74c2.04,0,3.03.78,3.03,2.4Z"/>
    <path d="M126.54,61.99c-1.81-1.38-4.07-2.08-6.73-2.08s-4.92.7-6.75,2.08c-2.1,1.59-3.16,3.64-3.16,6.11s1.05,4.57,3.12,6.13c1.81,1.37,4.09,2.06,6.8,2.06s4.95-.69,6.75-2.04c2.07-1.56,3.12-3.63,3.12-6.15s-1.06-4.52-3.14-6.11ZM126.8,68.09c0,1.66-.64,3.03-1.9,4.06-1.27,1.04-2.98,1.57-5.1,1.57s-3.86-.52-5.13-1.56c-1.26-1.03-1.91-2.4-1.91-4.07s.66-2.97,1.95-4.03c1.3-1.06,3.01-1.6,5.09-1.6,1.9,0,3.5.47,4.78,1.4,1.47,1.08,2.22,2.5,2.22,4.23Z"/>
  </g>
  <g>
    <path d="M172.72,67.85c1.2-.77,1.81-1.84,1.81-3.18s-.46-2.34-1.37-3.12c-.9-.77-2.15-1.16-3.71-1.16h-12.41v15.45h12.24c3.9,0,5.88-1.38,5.88-4.12,0-1.93-.82-3.23-2.44-3.87ZM159.82,66.75v-3.84h9.79c.69,0,1.25.17,1.64.52.4.34.59.8.59,1.38,0,.54-.22.99-.66,1.37-.44.38-1.01.57-1.67.57h-9.68ZM172.33,71.37c0,1.31-.99,1.95-3.02,1.95h-9.49v-4.06h9.89c1.77,0,2.63.69,2.63,2.1Z"/>
    <path d="M185.8,60.39l-8.18,15.45h3.04l1.75-3.4h10.09l1.72,3.33.04.07h3.04l-8.18-15.45h-3.32ZM191.15,69.92h-7.38l3.71-6.97,3.67,6.97Z"/>
    <path d="M208.2,70.04h7.02c-1.01,2.44-3.15,3.68-6.37,3.68-2.1,0-3.81-.53-5.09-1.57-1.27-1.03-1.91-2.4-1.91-4.06s.75-3.15,2.22-4.23c1.27-.93,2.88-1.4,4.78-1.4,2.43,0,4.45.84,6,2.5l.06.07,2.58-1.29-.11-.12c-2.16-2.47-4.96-3.72-8.33-3.72-2.79,0-5.12.7-6.94,2.08-2.08,1.59-3.14,3.64-3.14,6.11s1.04,4.57,3.09,6.13c1.81,1.37,4.09,2.06,6.77,2.06,2.94,0,5.34-.78,7.13-2.31,1.79-1.54,2.7-3.59,2.7-6.09v-.36h-10.48v2.52Z"/>
    <polygon points="237.98 72.67 226.59 60.43 226.55 60.39 223.24 60.39 223.24 75.84 226.01 75.84 226.01 63.56 237.4 75.8 237.44 75.84 240.75 75.84 240.75 60.39 237.98 60.39 237.98 72.67"/>
    <path d="M262.1,61.99c-1.81-1.38-4.07-2.08-6.73-2.08s-4.92.7-6.75,2.08c-2.1,1.59-3.16,3.64-3.16,6.11s1.05,4.57,3.12,6.13c1.81,1.37,4.09,2.06,6.8,2.06s4.95-.69,6.75-2.04c2.07-1.56,3.12-3.63,3.12-6.15s-1.06-4.52-3.14-6.11ZM262.36,68.09c0,1.66-.64,3.03-1.9,4.06-1.27,1.04-2.98,1.57-5.1,1.57s-3.86-.52-5.13-1.56c-1.26-1.03-1.91-2.4-1.91-4.07s.66-2.97,1.95-4.03c1.3-1.06,3.01-1.6,5.09-1.6,1.9,0,3.5.47,4.78,1.4,1.47,1.08,2.22,2.5,2.22,4.23Z"/>
    <path d="M279.68,60.39h-9.74v15.45h10.23c2.27,0,4.21-.69,5.75-2.05,1.66-1.46,2.5-3.31,2.5-5.51,0-2.39-.79-4.33-2.36-5.75-1.56-1.42-3.71-2.14-6.37-2.14ZM285.43,68.22c0,1.49-.48,2.73-1.42,3.68-.94.95-2.17,1.43-3.64,1.43h-7.67v-10.42h7.18c1.65,0,3,.49,4.02,1.46,1.01.97,1.53,2.27,1.53,3.85Z"/>
    <polygon points="295.85 69.08 304.76 69.08 304.76 66.56 295.85 66.56 295.85 62.9 308.66 62.9 308.66 60.39 293.08 60.39 293.08 75.84 309.25 75.84 309.25 73.32 295.85 73.32 295.85 69.08"/>
    <path d="M328.71,67.99c-.92-.7-2.36-1.18-4.28-1.43-.67-.08-2.03-.19-4.17-.34-1.41-.08-2.44-.24-3.05-.46-.83-.29-1.24-.73-1.24-1.35s.38-1.05,1.16-1.4c.81-.36,1.99-.54,3.52-.54,2.31,0,4.61.58,6.83,1.71l.08.04,1.69-1.88-.12-.08c-2.22-1.5-5.02-2.27-8.3-2.27-2.45,0-4.37.42-5.72,1.26-1.37.85-2.06,2.02-2.06,3.49s.62,2.46,1.83,3.07c1.02.51,2.81.85,5.32,1.02,2.81.18,4.55.36,5.18.52,1.18.31,1.75.9,1.75,1.81,0,.78-.44,1.38-1.34,1.84-.96.48-2.33.72-4.08.72-2.71,0-5.27-.73-7.62-2.17l-.1-.06-1.53,2.01.1.08c2.17,1.72,5.24,2.59,9.13,2.59,2.68,0,4.78-.45,6.22-1.34,1.46-.9,2.2-2.2,2.2-3.84,0-1.29-.48-2.31-1.42-3.02Z"/>
    <rect height="15.45" width="2.77" x="334.6" y="60.39"/>
    <path d="M351.33,70.04h7.02c-1.01,2.44-3.15,3.68-6.37,3.68-2.1,0-3.81-.53-5.09-1.57-1.27-1.03-1.91-2.4-1.91-4.06s.75-3.15,2.22-4.23c1.27-.93,2.88-1.4,4.78-1.4,2.43,0,4.45.84,6,2.5l.06.07,2.58-1.29-.11-.12c-2.16-2.47-4.96-3.72-8.33-3.72-2.79,0-5.12.7-6.94,2.08-2.08,1.59-3.14,3.64-3.14,6.11s1.04,4.57,3.09,6.13c1.81,1.37,4.09,2.06,6.77,2.06,2.94,0,5.34-.78,7.13-2.31,1.79-1.54,2.7-3.59,2.7-6.09v-.36h-10.48v2.52Z"/>
    <polygon points="381.11 60.39 381.11 72.67 369.72 60.43 369.68 60.39 366.37 60.39 366.37 75.84 369.14 75.84 369.14 63.56 380.53 75.8 380.57 75.84 383.88 75.84 383.88 60.39 381.11 60.39"/>
  </g>
  <g>
    <path d="M420.83,70.04h7.02c-1.01,2.44-3.15,3.68-6.37,3.68-2.1,0-3.81-.53-5.09-1.57-1.27-1.03-1.91-2.4-1.91-4.06s.75-3.15,2.22-4.23c1.27-.93,2.88-1.4,4.78-1.4,2.43,0,4.45.84,6,2.5l.06.07,2.58-1.29-.11-.12c-2.16-2.47-4.96-3.72-8.33-3.72-2.79,0-5.12.7-6.94,2.08-2.08,1.59-3.14,3.64-3.14,6.11s1.04,4.57,3.09,6.13c1.81,1.37,4.09,2.06,6.77,2.06,2.94,0,5.34-.78,7.13-2.31,1.79-1.54,2.7-3.59,2.7-6.09v-.36h-10.48v2.52Z"/>
    <polygon points="442.2 67.42 435.84 60.43 435.81 60.39 432.33 60.39 440.8 69.76 440.8 75.84 443.57 75.84 443.57 69.76 452.04 60.39 448.56 60.39 442.2 67.42"/>
    <polygon points="465.93 69.5 458.7 60.39 455.36 60.39 455.36 75.84 458.13 75.84 458.13 63.56 465.81 73.27 465.91 73.4 473.74 63.56 473.74 75.84 476.51 75.84 476.51 60.39 473.18 60.39 465.93 69.5"/>
    <polygon points="499.38 60.39 495.32 60.39 484.84 68.14 484.84 60.39 482.07 60.39 482.07 75.84 484.84 75.84 484.84 71.17 489.3 67.89 496.5 75.8 496.54 75.84 500.12 75.84 491.41 66.28 499.38 60.39"/>
    <polygon points="518.08 66.56 506.15 66.56 506.15 60.39 503.38 60.39 503.38 75.84 506.15 75.84 506.15 69.08 518.08 69.08 518.08 75.84 520.85 75.84 520.85 60.39 518.08 60.39 518.08 66.56"/>
    <path d="M532.52,60.39l-8.08,15.27-.1.18h3.04l1.75-3.4h10.09l1.72,3.33.04.07h3.04l-8.18-15.45h-3.32ZM537.87,69.92h-7.38l3.71-6.97,3.67,6.97Z"/>
    <polygon points="562.26 72.67 550.86 60.43 550.83 60.39 547.52 60.39 547.52 75.84 550.29 75.84 550.29 63.56 561.68 75.8 561.71 75.84 565.03 75.84 565.03 60.39 562.26 60.39 562.26 72.67"/>
    <path d="M580.01,60.39h-3.32l-8.08,15.27-.1.18h3.04l1.75-3.4h10.09l1.72,3.33.04.07h3.04l-8.18-15.45ZM582.04,69.92h-7.38l3.71-6.97,3.67,6.97Z"/>
  </g>
  <rect height="25.23" width="2.27" x="142.23" y="55.48"/>
  <rect height="25.23" width="2.27" x="396.61" y="55.48"/>
</svg>